<?xml version="1.0" encoding="UTF-8" standalone="no"?>
<!DOCTYPE svg PUBLIC "-//W3C//DTD SVG 1.1//EN"
 "http://www.w3.org/Graphics/SVG/1.1/DTD/svg11.dtd">
<!-- Generated by graphviz version 2.26.3 (20100126.1600)
 -->
<!-- Title: G Pages: 1 -->
<svg width="1166pt" height="2346pt"
 viewBox="0.00 0.00 1166.00 2346.00" xmlns="http://www.w3.org/2000/svg" xmlns:xlink="http://www.w3.org/1999/xlink">
<g id="graph1" class="graph" transform="scale(1 1) rotate(0) translate(4 2342)">
<title>G</title>
<polygon fill="white" stroke="white" points="-4,5 -4,-2342 1163,-2342 1163,5 -4,5"/>
<g id="graph2" class="cluster"><title>cluster_Global</title>
<polyline fill="none" stroke="gray" points="110,-244 1138,-244 "/>
<path fill="none" stroke="gray" d="M1138,-244C1144,-244 1150,-250 1150,-256"/>
<polyline fill="none" stroke="gray" points="1150,-256 1150,-2318 "/>
<path fill="none" stroke="gray" d="M1150,-2318C1150,-2324 1144,-2330 1138,-2330"/>
<polyline fill="none" stroke="gray" points="1138,-2330 110,-2330 "/>
<path fill="none" stroke="gray" d="M110,-2330C104,-2330 98,-2324 98,-2318"/>
<polyline fill="none" stroke="gray" points="98,-2318 98,-256 "/>
<path fill="none" stroke="gray" d="M98,-256C98,-250 104,-244 110,-244"/>
<text text-anchor="middle" x="624" y="-2316.1" font-family="Times Roman,serif" font-size="11.00" fill="gray">Global</text>
</g>
<g id="graph3" class="cluster"><title>cluster_\OCA</title>
<polyline fill="none" stroke="gray" points="118,-252 1130,-252 "/>
<path fill="none" stroke="gray" d="M1130,-252C1136,-252 1142,-258 1142,-264"/>
<polyline fill="none" stroke="gray" points="1142,-264 1142,-2288 "/>
<path fill="none" stroke="gray" d="M1142,-2288C1142,-2294 1136,-2300 1130,-2300"/>
<polyline fill="none" stroke="gray" points="1130,-2300 118,-2300 "/>
<path fill="none" stroke="gray" d="M118,-2300C112,-2300 106,-2294 106,-2288"/>
<polyline fill="none" stroke="gray" points="106,-2288 106,-264 "/>
<path fill="none" stroke="gray" d="M106,-264C106,-258 112,-252 118,-252"/>
<text text-anchor="middle" x="624" y="-2286.1" font-family="Times Roman,serif" font-size="11.00" fill="gray">OCA</text>
</g>
<g id="graph4" class="cluster"><title>cluster_\OCA\Gallery</title>
<polyline fill="none" stroke="gray" points="126,-260 1122,-260 "/>
<path fill="none" stroke="gray" d="M1122,-260C1128,-260 1134,-266 1134,-272"/>
<polyline fill="none" stroke="gray" points="1134,-272 1134,-2258 "/>
<path fill="none" stroke="gray" d="M1134,-2258C1134,-2264 1128,-2270 1122,-2270"/>
<polyline fill="none" stroke="gray" points="1122,-2270 126,-2270 "/>
<path fill="none" stroke="gray" d="M126,-2270C120,-2270 114,-2264 114,-2258"/>
<polyline fill="none" stroke="gray" points="114,-2258 114,-272 "/>
<path fill="none" stroke="gray" d="M114,-272C114,-266 120,-260 126,-260"/>
<text text-anchor="middle" x="624" y="-2256.1" font-family="Times Roman,serif" font-size="11.00" fill="gray">Gallery</text>
</g>
<g id="graph5" class="cluster"><title>cluster_\OCA\Gallery\AppInfo</title>
<polyline fill="none" stroke="gray" points="949,-974 1033,-974 "/>
<path fill="none" stroke="gray" d="M1033,-974C1039,-974 1045,-980 1045,-986"/>
<polyline fill="none" stroke="gray" points="1045,-986 1045,-1036 "/>
<path fill="none" stroke="gray" d="M1045,-1036C1045,-1042 1039,-1048 1033,-1048"/>
<polyline fill="none" stroke="gray" points="1033,-1048 949,-1048 "/>
<path fill="none" stroke="gray" d="M949,-1048C943,-1048 937,-1042 937,-1036"/>
<polyline fill="none" stroke="gray" points="937,-1036 937,-986 "/>
<path fill="none" stroke="gray" d="M937,-986C937,-980 943,-974 949,-974"/>
<text text-anchor="middle" x="991" y="-1034.1" font-family="Times Roman,serif" font-size="11.00" fill="gray">AppInfo</text>
</g>
<g id="graph6" class="cluster"><title>cluster_\OCA\Gallery\Config</title>
<polyline fill="none" stroke="gray" points="936,-1056 1046,-1056 "/>
<path fill="none" stroke="gray" d="M1046,-1056C1052,-1056 1058,-1062 1058,-1068"/>
<polyline fill="none" stroke="gray" points="1058,-1068 1058,-1226 "/>
<path fill="none" stroke="gray" d="M1058,-1226C1058,-1232 1052,-1238 1046,-1238"/>
<polyline fill="none" stroke="gray" points="1046,-1238 936,-1238 "/>
<path fill="none" stroke="gray" d="M936,-1238C930,-1238 924,-1232 924,-1226"/>
<polyline fill="none" stroke="gray" points="924,-1226 924,-1068 "/>
<path fill="none" stroke="gray" d="M924,-1068C924,-1062 930,-1056 936,-1056"/>
<text text-anchor="middle" x="991" y="-1224.1" font-family="Times Roman,serif" font-size="11.00" fill="gray">Config</text>
</g>
<g id="graph7" class="cluster"><title>cluster_\OCA\Gallery\Controller</title>
<polyline fill="none" stroke="gray" points="543,-1382 1073,-1382 "/>
<path fill="none" stroke="gray" d="M1073,-1382C1079,-1382 1085,-1388 1085,-1394"/>
<polyline fill="none" stroke="gray" points="1085,-1394 1085,-2038 "/>
<path fill="none" stroke="gray" d="M1085,-2038C1085,-2044 1079,-2050 1073,-2050"/>
<polyline fill="none" stroke="gray" points="1073,-2050 543,-2050 "/>
<path fill="none" stroke="gray" d="M543,-2050C537,-2050 531,-2044 531,-2038"/>
<polyline fill="none" stroke="gray" points="531,-2038 531,-1394 "/>
<path fill="none" stroke="gray" d="M531,-1394C531,-1388 537,-1382 543,-1382"/>
<text text-anchor="middle" x="808" y="-2036.1" font-family="Times Roman,serif" font-size="11.00" fill="gray">Controller</text>
</g>
<g id="graph8" class="cluster"><title>cluster_\OCA\Gallery\Environment</title>
<polyline fill="none" stroke="gray" points="533,-1246 1063,-1246 "/>
<path fill="none" stroke="gray" d="M1063,-1246C1069,-1246 1075,-1252 1075,-1258"/>
<polyline fill="none" stroke="gray" points="1075,-1258 1075,-1362 "/>
<path fill="none" stroke="gray" d="M1075,-1362C1075,-1368 1069,-1374 1063,-1374"/>
<polyline fill="none" stroke="gray" points="1063,-1374 533,-1374 "/>
<path fill="none" stroke="gray" d="M533,-1374C527,-1374 521,-1368 521,-1362"/>
<polyline fill="none" stroke="gray" points="521,-1362 521,-1258 "/>
<path fill="none" stroke="gray" d="M521,-1258C521,-1252 527,-1246 533,-1246"/>
<text text-anchor="middle" x="798" y="-1360.1" font-family="Times Roman,serif" font-size="11.00" fill="gray">Environment</text>
</g>
<g id="graph9" class="cluster"><title>cluster_\OCA\Gallery\Http</title>
<polyline fill="none" stroke="gray" points="943,-892 1039,-892 "/>
<path fill="none" stroke="gray" d="M1039,-892C1045,-892 1051,-898 1051,-904"/>
<polyline fill="none" stroke="gray" points="1051,-904 1051,-954 "/>
<path fill="none" stroke="gray" d="M1051,-954C1051,-960 1045,-966 1039,-966"/>
<polyline fill="none" stroke="gray" points="1039,-966 943,-966 "/>
<path fill="none" stroke="gray" d="M943,-966C937,-966 931,-960 931,-954"/>
<polyline fill="none" stroke="gray" points="931,-954 931,-904 "/>
<path fill="none" stroke="gray" d="M931,-904C931,-898 937,-892 943,-892"/>
<text text-anchor="middle" x="991" y="-952.1" font-family="Times Roman,serif" font-size="11.00" fill="gray">Http</text>
</g>
<g id="graph10" class="cluster"><title>cluster_\OCA\Gallery\Middleware</title>
<polyline fill="none" stroke="gray" points="549,-2058 1070,-2058 "/>
<path fill="none" stroke="gray" d="M1070,-2058C1076,-2058 1082,-2064 1082,-2070"/>
<polyline fill="none" stroke="gray" points="1082,-2070 1082,-2228 "/>
<path fill="none" stroke="gray" d="M1082,-2228C1082,-2234 1076,-2240 1070,-2240"/>
<polyline fill="none" stroke="gray" points="1070,-2240 549,-2240 "/>
<path fill="none" stroke="gray" d="M549,-2240C543,-2240 537,-2234 537,-2228"/>
<polyline fill="none" stroke="gray" points="537,-2228 537,-2070 "/>
<path fill="none" stroke="gray" d="M537,-2070C537,-2064 543,-2058 549,-2058"/>
<text text-anchor="middle" x="809.5" y="-2226.1" font-family="Times Roman,serif" font-size="11.00" fill="gray">Middleware</text>
</g>
<g id="graph11" class="cluster"><title>cluster_\OCA\Gallery\Preview</title>
<polyline fill="none" stroke="gray" points="963,-810 1019,-810 "/>
<path fill="none" stroke="gray" d="M1019,-810C1025,-810 1031,-816 1031,-822"/>
<polyline fill="none" stroke="gray" points="1031,-822 1031,-872 "/>
<path fill="none" stroke="gray" d="M1031,-872C1031,-878 1025,-884 1019,-884"/>
<polyline fill="none" stroke="gray" points="1019,-884 963,-884 "/>
<path fill="none" stroke="gray" d="M963,-884C957,-884 951,-878 951,-872"/>
<polyline fill="none" stroke="gray" points="951,-872 951,-822 "/>
<path fill="none" stroke="gray" d="M951,-822C951,-816 957,-810 963,-810"/>
<text text-anchor="middle" x="991" y="-870.1" font-family="Times Roman,serif" font-size="11.00" fill="gray">Preview</text>
</g>
<g id="graph12" class="cluster"><title>cluster_\OCA\Gallery\Service</title>
<polyline fill="none" stroke="gray" points="134,-350 1114,-350 "/>
<path fill="none" stroke="gray" d="M1114,-350C1120,-350 1126,-356 1126,-362"/>
<polyline fill="none" stroke="gray" points="1126,-362 1126,-790 "/>
<path fill="none" stroke="gray" d="M1126,-790C1126,-796 1120,-802 1114,-802"/>
<polyline fill="none" stroke="gray" points="1114,-802 134,-802 "/>
<path fill="none" stroke="gray" d="M134,-802C128,-802 122,-796 122,-790"/>
<polyline fill="none" stroke="gray" points="122,-790 122,-362 "/>
<path fill="none" stroke="gray" d="M122,-362C122,-356 128,-350 134,-350"/>
<text text-anchor="middle" x="624" y="-788.1" font-family="Times Roman,serif" font-size="11.00" fill="gray">Service</text>
</g>
<g id="graph13" class="cluster"><title>cluster_\OCA\Gallery\Utility</title>
<polyline fill="none" stroke="gray" points="949,-268 1033,-268 "/>
<path fill="none" stroke="gray" d="M1033,-268C1039,-268 1045,-274 1045,-280"/>
<polyline fill="none" stroke="gray" points="1045,-280 1045,-330 "/>
<path fill="none" stroke="gray" d="M1045,-330C1045,-336 1039,-342 1033,-342"/>
<polyline fill="none" stroke="gray" points="1033,-342 949,-342 "/>
<path fill="none" stroke="gray" d="M949,-342C943,-342 937,-336 937,-330"/>
<polyline fill="none" stroke="gray" points="937,-330 937,-280 "/>
<path fill="none" stroke="gray" d="M937,-280C937,-274 943,-268 949,-268"/>
<text text-anchor="middle" x="991" y="-328.1" font-family="Times Roman,serif" font-size="11.00" fill="gray">Utility</text>
</g>
<!-- \\OCA\\Gallery\\AppInfo\\Application -->
<g id="node5" class="node"><title>\\OCA\\Gallery\\AppInfo\\Application</title>
<polygon fill="none" stroke="black" points="1036,-1018 946,-1018 946,-982 1036,-982 1036,-1018"/>
<text text-anchor="middle" x="991" y="-997.1" font-family="Courier,monospace" font-size="11.00">Application</text>
</g>
<!-- \\OCP\\AppFramework\\App -->
<g id="node56" class="node"><title>\\OCP\\AppFramework\\App</title>
<ellipse fill="none" stroke="black" cx="605" cy="-126" rx="135.057" ry="18.3848"/>
<text text-anchor="middle" x="605" y="-122.4" font-family="Times Roman,serif" font-size="14.00" fill="gray">\OCP\AppFramework\App</text>
</g>
<!-- \\OCA\\Gallery\\AppInfo\\Application&#45;&gt;\\OCP\\AppFramework\\App -->
<g id="edge14" class="edge"><title>\\OCA\\Gallery\\AppInfo\\Application&#45;&gt;\\OCP\\AppFramework\\App</title>
<path fill="none" stroke="black" d="M945.19,-1001.67C917.484,-1000.04 883.798,-992.865 864,-970 745.42,-833.051 914.8,-291.178 792,-158 780.335,-145.349 765.642,-136.529 749.644,-130.503"/>
<polygon fill="none" stroke="black" points="750.681,-127.159 740.086,-127.27 748.438,-133.79 750.681,-127.159"/>
</g>
<!-- \\OCA\\Gallery\\Config\\ConfigException -->
<g id="node7" class="node"><title>\\OCA\\Gallery\\Config\\ConfigException</title>
<polygon fill="none" stroke="black" points="1050,-1208 932,-1208 932,-1172 1050,-1172 1050,-1208"/>
<text text-anchor="middle" x="991" y="-1187.1" font-family="Courier,monospace" font-size="11.00">ConfigException</text>
</g>
<!-- \\Exception -->
<g id="node58" class="node"><title>\\Exception</title>
<ellipse fill="none" stroke="black" cx="173" cy="-110" rx="62.9325" ry="18.3848"/>
<text text-anchor="middle" x="173" y="-106.4" font-family="Times Roman,serif" font-size="14.00" fill="gray">\Exception</text>
</g>
<!-- \\OCA\\Gallery\\Config\\ConfigException&#45;&gt;\\Exception -->
<g id="edge16" class="edge"><title>\\OCA\\Gallery\\Config\\ConfigException&#45;&gt;\\Exception</title>
<path fill="none" stroke="black" d="M931.742,-1192.07C907.222,-1189.63 880.676,-1182.1 864,-1163 721.569,-999.827 943.047,-346.231 792,-191 733.741,-131.128 500.472,-166.306 418,-153 385.638,-147.779 378.211,-143.086 346,-137 311.096,-130.405 272.011,-124.205 239.835,-119.414"/>
<polygon fill="none" stroke="black" points="240.049,-115.907 229.644,-117.909 239.026,-122.832 240.049,-115.907"/>
</g>
<!-- \\OCA\\Gallery\\Config\\ConfigParser -->
<g id="node8" class="node"><title>\\OCA\\Gallery\\Config\\ConfigParser</title>
<polygon fill="none" stroke="black" points="1040,-1154 942,-1154 942,-1118 1040,-1118 1040,-1154"/>
<text text-anchor="middle" x="991" y="-1133.1" font-family="Courier,monospace" font-size="11.00">ConfigParser</text>
</g>
<!-- \\OCA\\Gallery\\Config\\ConfigValidator -->
<g id="node9" class="node"><title>\\OCA\\Gallery\\Config\\ConfigValidator</title>
<polygon fill="none" stroke="black" points="1050,-1100 932,-1100 932,-1064 1050,-1064 1050,-1100"/>
<text text-anchor="middle" x="991" y="-1079.1" font-family="Courier,monospace" font-size="11.00">ConfigValidator</text>
</g>
<!-- \\OCA\\Gallery\\Controller\\ConfigApiController -->
<g id="node11" class="node"><title>\\OCA\\Gallery\\Controller\\ConfigApiController</title>
<polygon fill="none" stroke="black" points="1063,-1804 919,-1804 919,-1768 1063,-1768 1063,-1804"/>
<text text-anchor="middle" x="991" y="-1783.1" font-family="Courier,monospace" font-size="11.00">ConfigApiController</text>
</g>
<!-- \\OCP\\AppFramework\\ApiController -->
<g id="node60" class="node"><title>\\OCP\\AppFramework\\ApiController</title>
<ellipse fill="none" stroke="black" cx="605" cy="-218" rx="179.813" ry="18.3848"/>
<text text-anchor="middle" x="605" y="-214.4" font-family="Times Roman,serif" font-size="14.00" fill="gray">\OCP\AppFramework\ApiController</text>
</g>
<!-- \\OCA\\Gallery\\Controller\\ConfigApiController&#45;&gt;\\OCP\\AppFramework\\ApiController -->
<g id="edge18" class="edge"><title>\\OCA\\Gallery\\Controller\\ConfigApiController&#45;&gt;\\OCP\\AppFramework\\ApiController</title>
<path fill="none" stroke="black" d="M918.29,-1786.46C897.835,-1782.81 877.508,-1774.88 864,-1759 756.335,-1632.4 897.32,-393.56 792,-265 780.828,-251.363 766.339,-241.347 750.37,-234.041"/>
<polygon fill="none" stroke="black" points="751.386,-230.672 740.81,-230.045 748.687,-237.131 751.386,-230.672"/>
</g>
<!-- \\OCA\\Gallery\\Controller\\ConfigController -->
<g id="node12" class="node"><title>\\OCA\\Gallery\\Controller\\ConfigController</title>
<polygon fill="none" stroke="black" points="667,-1959 543,-1959 543,-1923 667,-1923 667,-1959"/>
<text text-anchor="middle" x="605" y="-1938.1" font-family="Courier,monospace" font-size="11.00">ConfigController</text>
</g>
<!-- \\OCP\\AppFramework\\Controller -->
<g id="node62" class="node"><title>\\OCP\\AppFramework\\Controller</title>
<ellipse fill="none" stroke="black" cx="173" cy="-164" rx="164.756" ry="18.3848"/>
<text text-anchor="middle" x="173" y="-160.4" font-family="Times Roman,serif" font-size="14.00" fill="gray">\OCP\AppFramework\Controller</text>
</g>
<!-- \\OCA\\Gallery\\Controller\\ConfigController&#45;&gt;\\OCP\\AppFramework\\Controller -->
<g id="edge20" class="edge"><title>\\OCA\\Gallery\\Controller\\ConfigController&#45;&gt;\\OCP\\AppFramework\\Controller</title>
<path fill="none" stroke="black" d="M542.207,-1929.05C499.526,-1917.38 445.927,-1894.97 418,-1853 315.604,-1699.11 469.214,-328.783 346,-191 341.235,-185.671 335.886,-181.094 330.099,-177.175"/>
<polygon fill="none" stroke="black" points="331.699,-174.052 321.327,-171.893 328.088,-180.049 331.699,-174.052"/>
</g>
<!-- \\OCA\\Gallery\\Controller\\ConfigPublicController -->
<g id="node13" class="node"><title>\\OCA\\Gallery\\Controller\\ConfigPublicController</title>
<polygon fill="none" stroke="black" points="1073,-2020 909,-2020 909,-1984 1073,-1984 1073,-2020"/>
<text text-anchor="middle" x="991" y="-1999.1" font-family="Courier,monospace" font-size="11.00">ConfigPublicController</text>
</g>
<!-- \\OCA\\Gallery\\Controller\\ConfigPublicController&#45;&gt;\\OCA\\Gallery\\Controller\\ConfigController -->
<g id="edge22" class="edge"><title>\\OCA\\Gallery\\Controller\\ConfigPublicController&#45;&gt;\\OCA\\Gallery\\Controller\\ConfigController</title>
<path fill="none" stroke="black" d="M908.193,-1988.91C839.749,-1978.1 743.5,-1962.89 677.929,-1952.53"/>
<polygon fill="none" stroke="black" points="678.101,-1949.01 667.677,-1950.9 677.009,-1955.92 678.101,-1949.01"/>
</g>
<!-- \\OCA\\Gallery\\Controller\\FilesApiController -->
<g id="node14" class="node"><title>\\OCA\\Gallery\\Controller\\FilesApiController</title>
<polygon fill="none" stroke="black" points="1060,-1750 922,-1750 922,-1714 1060,-1714 1060,-1750"/>
<text text-anchor="middle" x="991" y="-1729.1" font-family="Courier,monospace" font-size="11.00">FilesApiController</text>
</g>
<!-- \\OCA\\Gallery\\Controller\\FilesApiController&#45;&gt;\\OCP\\AppFramework\\ApiController -->
<g id="edge24" class="edge"><title>\\OCA\\Gallery\\Controller\\FilesApiController&#45;&gt;\\OCP\\AppFramework\\ApiController</title>
<path fill="none" stroke="black" d="M921.956,-1733.06C900.295,-1729.71 878.326,-1721.82 864,-1705 656.215,-1461.11 995.268,-512.665 792,-265 780.816,-251.373 766.319,-241.363 750.346,-234.06"/>
<polygon fill="none" stroke="black" points="751.361,-230.691 740.785,-230.065 748.663,-237.15 751.361,-230.691"/>
</g>
<!-- \\OCA\\Gallery\\Controller\\FilesController -->
<g id="node15" class="node"><title>\\OCA\\Gallery\\Controller\\FilesController</title>
<polygon fill="none" stroke="black" points="664,-1844 546,-1844 546,-1808 664,-1808 664,-1844"/>
<text text-anchor="middle" x="605" y="-1823.1" font-family="Courier,monospace" font-size="11.00">FilesController</text>
</g>
<!-- \\OCA\\Gallery\\Controller\\FilesController&#45;&gt;\\OCP\\AppFramework\\Controller -->
<g id="edge26" class="edge"><title>\\OCA\\Gallery\\Controller\\FilesController&#45;&gt;\\OCP\\AppFramework\\Controller</title>
<path fill="none" stroke="black" d="M565.971,-1807.9C521.239,-1784.8 449.99,-1740.23 418,-1678 342.373,-1530.88 456.579,-314.023 346,-191 341.221,-185.684 335.861,-181.116 330.066,-177.205"/>
<polygon fill="none" stroke="black" points="331.657,-174.078 321.282,-171.933 328.055,-180.08 331.657,-174.078"/>
</g>
<!-- \\OCA\\Gallery\\Controller\\FilesPublicController -->
<g id="node16" class="node"><title>\\OCA\\Gallery\\Controller\\FilesPublicController</title>
<polygon fill="none" stroke="black" points="1070,-1966 912,-1966 912,-1930 1070,-1930 1070,-1966"/>
<text text-anchor="middle" x="991" y="-1945.1" font-family="Courier,monospace" font-size="11.00">FilesPublicController</text>
</g>
<!-- \\OCA\\Gallery\\Controller\\FilesPublicController&#45;&gt;\\OCA\\Gallery\\Controller\\FilesController -->
<g id="edge28" class="edge"><title>\\OCA\\Gallery\\Controller\\FilesPublicController&#45;&gt;\\OCA\\Gallery\\Controller\\FilesController</title>
<path fill="none" stroke="black" d="M911.982,-1933.02C895.996,-1929.48 879.379,-1925.43 864,-1921 791.212,-1900.03 709.507,-1868.71 657.684,-1847.83"/>
<polygon fill="none" stroke="black" points="658.947,-1844.57 648.364,-1844.06 656.321,-1851.06 658.947,-1844.57"/>
</g>
<!-- \\OCA\\Gallery\\Controller\\PageController -->
<g id="node17" class="node"><title>\\OCA\\Gallery\\Controller\\PageController</title>
<polygon fill="none" stroke="black" points="1046,-1858 936,-1858 936,-1822 1046,-1822 1046,-1858"/>
<text text-anchor="middle" x="991" y="-1837.1" font-family="Courier,monospace" font-size="11.00">PageController</text>
</g>
<!-- \\OCA\\Gallery\\Controller\\PageController&#45;&gt;\\OCP\\AppFramework\\Controller -->
<g id="edge30" class="edge"><title>\\OCA\\Gallery\\Controller\\PageController&#45;&gt;\\OCP\\AppFramework\\Controller</title>
<path fill="none" stroke="black" d="M935.428,-1842.6C909.811,-1840.64 881.314,-1833.34 864,-1813 652.442,-1564.45 996.735,-600.196 792,-346 683.999,-211.908 572.763,-320.453 418,-245 382.046,-227.471 382.855,-206.546 346,-191 333.717,-185.819 320.565,-181.62 307.202,-178.22"/>
<polygon fill="none" stroke="black" points="307.985,-174.809 297.445,-175.883 306.354,-181.616 307.985,-174.809"/>
</g>
<!-- \\OCA\\Gallery\\Controller\\PreviewApiController -->
<g id="node18" class="node"><title>\\OCA\\Gallery\\Controller\\PreviewApiController</title>
<polygon fill="none" stroke="black" points="1067,-1696 915,-1696 915,-1660 1067,-1660 1067,-1696"/>
<text text-anchor="middle" x="991" y="-1675.1" font-family="Courier,monospace" font-size="11.00">PreviewApiController</text>
</g>
<!-- \\OCA\\Gallery\\Controller\\PreviewApiController&#45;&gt;\\OCP\\AppFramework\\ApiController -->
<g id="edge32" class="edge"><title>\\OCA\\Gallery\\Controller\\PreviewApiController&#45;&gt;\\OCP\\AppFramework\\ApiController</title>
<path fill="none" stroke="black" d="M914.681,-1677.74C895.479,-1673.81 876.733,-1665.92 864,-1651 663.759,-1416.43 987.897,-503.211 792,-265 780.802,-251.384 766.298,-241.381 750.321,-234.08"/>
<polygon fill="none" stroke="black" points="751.335,-230.711 740.758,-230.087 748.638,-237.17 751.335,-230.711"/>
</g>
<!-- \\OCA\\Gallery\\Controller\\PreviewController -->
<g id="node19" class="node"><title>\\OCA\\Gallery\\Controller\\PreviewController</title>
<polygon fill="none" stroke="black" points="670,-1669 540,-1669 540,-1633 670,-1633 670,-1669"/>
<text text-anchor="middle" x="605" y="-1648.1" font-family="Courier,monospace" font-size="11.00">PreviewController</text>
</g>
<!-- \\OCA\\Gallery\\Controller\\PreviewController&#45;&gt;\\OCP\\AppFramework\\Controller -->
<g id="edge34" class="edge"><title>\\OCA\\Gallery\\Controller\\PreviewController&#45;&gt;\\OCP\\AppFramework\\Controller</title>
<path fill="none" stroke="black" d="M587.131,-1632.82C547.987,-1591.64 455.201,-1486.4 418,-1378 375.111,-1253.02 434.927,-288.728 346,-191 341.189,-185.713 335.802,-181.169 329.986,-177.277"/>
<polygon fill="none" stroke="black" points="331.557,-174.139 321.174,-172.03 327.975,-180.154 331.557,-174.139"/>
</g>
<!-- \\OCA\\Gallery\\Controller\\PreviewPublicController -->
<g id="node20" class="node"><title>\\OCA\\Gallery\\Controller\\PreviewPublicController</title>
<polygon fill="none" stroke="black" points="1077,-1912 905,-1912 905,-1876 1077,-1876 1077,-1912"/>
<text text-anchor="middle" x="991" y="-1891.1" font-family="Courier,monospace" font-size="11.00">PreviewPublicController</text>
</g>
<!-- \\OCA\\Gallery\\Controller\\PreviewPublicController&#45;&gt;\\OCA\\Gallery\\Controller\\PreviewController -->
<g id="edge36" class="edge"><title>\\OCA\\Gallery\\Controller\\PreviewPublicController&#45;&gt;\\OCA\\Gallery\\Controller\\PreviewController</title>
<path fill="none" stroke="black" d="M904.731,-1882.35C890.653,-1878.58 876.576,-1873.6 864,-1867 825.023,-1846.55 825.289,-1827.8 792,-1799 739.309,-1753.42 675.091,-1703.81 637.266,-1675.17"/>
<polygon fill="none" stroke="black" points="639.242,-1672.28 629.153,-1669.04 635.022,-1677.86 639.242,-1672.28"/>
</g>
<!-- \\OCA\\Gallery\\Controller\\Config -->
<g id="node21" class="node"><title>\\OCA\\Gallery\\Controller\\Config</title>
<polygon fill="none" stroke="black" points="1019,-1642 963,-1642 963,-1606 1019,-1606 1019,-1642"/>
<text text-anchor="middle" x="991" y="-1621.1" font-family="Courier,monospace" font-size="11.00">Config</text>
</g>
<!-- \\OCA\\Gallery\\Controller\\Files -->
<g id="node22" class="node"><title>\\OCA\\Gallery\\Controller\\Files</title>
<polygon fill="none" stroke="black" points="1018,-1588 964,-1588 964,-1552 1018,-1552 1018,-1588"/>
<text text-anchor="middle" x="991" y="-1567.1" font-family="Courier,monospace" font-size="11.00">Files</text>
</g>
<!-- \\OCA\\Gallery\\Controller\\HttpError -->
<g id="node23" class="node"><title>\\OCA\\Gallery\\Controller\\HttpError</title>
<polygon fill="none" stroke="black" points="1029,-1534 953,-1534 953,-1498 1029,-1498 1029,-1534"/>
<text text-anchor="middle" x="991" y="-1513.1" font-family="Courier,monospace" font-size="11.00">HttpError</text>
</g>
<!-- \\OCA\\Gallery\\Controller\\PathManipulation -->
<g id="node24" class="node"><title>\\OCA\\Gallery\\Controller\\PathManipulation</title>
<polygon fill="none" stroke="black" points="1053,-1480 929,-1480 929,-1444 1053,-1444 1053,-1480"/>
<text text-anchor="middle" x="991" y="-1459.1" font-family="Courier,monospace" font-size="11.00">PathManipulation</text>
</g>
<!-- \\OCA\\Gallery\\Controller\\Preview -->
<g id="node25" class="node"><title>\\OCA\\Gallery\\Controller\\Preview</title>
<polygon fill="none" stroke="black" points="1023,-1426 959,-1426 959,-1390 1023,-1390 1023,-1426"/>
<text text-anchor="middle" x="991" y="-1405.1" font-family="Courier,monospace" font-size="11.00">Preview</text>
</g>
<!-- \\OCA\\Gallery\\Environment\\Environment -->
<g id="node27" class="node"><title>\\OCA\\Gallery\\Environment\\Environment</title>
<polygon fill="none" stroke="black" points="1036,-1344 946,-1344 946,-1308 1036,-1308 1036,-1344"/>
<text text-anchor="middle" x="991" y="-1323.1" font-family="Courier,monospace" font-size="11.00">Environment</text>
</g>
<!-- \\OCA\\Gallery\\Environment\\EnvironmentException -->
<g id="node28" class="node"><title>\\OCA\\Gallery\\Environment\\EnvironmentException</title>
<polygon fill="none" stroke="black" points="681,-1290 529,-1290 529,-1254 681,-1254 681,-1290"/>
<text text-anchor="middle" x="605" y="-1269.1" font-family="Courier,monospace" font-size="11.00">EnvironmentException</text>
</g>
<!-- \\OCA\\Gallery\\Environment\\EnvironmentException&#45;&gt;\\Exception -->
<g id="edge38" class="edge"><title>\\OCA\\Gallery\\Environment\\EnvironmentException&#45;&gt;\\Exception</title>
<path fill="none" stroke="black" d="M595.637,-1253.96C564.426,-1192.94 463.354,-987.853 418,-806 381.817,-660.919 449.184,-245.217 346,-137 319.443,-109.148 276.845,-102.24 240.565,-102.373"/>
<polygon fill="none" stroke="black" points="240.442,-98.8744 230.519,-102.585 240.59,-105.873 240.442,-98.8744"/>
</g>
<!-- \\OCA\\Gallery\\Environment\\NotFoundEnvException -->
<g id="node29" class="node"><title>\\OCA\\Gallery\\Environment\\NotFoundEnvException</title>
<polygon fill="none" stroke="black" points="1067,-1290 915,-1290 915,-1254 1067,-1254 1067,-1290"/>
<text text-anchor="middle" x="991" y="-1269.1" font-family="Courier,monospace" font-size="11.00">NotFoundEnvException</text>
</g>
<!-- \\OCA\\Gallery\\Environment\\NotFoundEnvException&#45;&gt;\\OCA\\Gallery\\Environment\\EnvironmentException -->
<g id="edge40" class="edge"><title>\\OCA\\Gallery\\Environment\\NotFoundEnvException&#45;&gt;\\OCA\\Gallery\\Environment\\EnvironmentException</title>
<path fill="none" stroke="black" d="M914.739,-1272C850.372,-1272 758.256,-1272 691.221,-1272"/>
<polygon fill="none" stroke="black" points="691.103,-1268.5 681.103,-1272 691.103,-1275.5 691.103,-1268.5"/>
</g>
<!-- \\OCA\\Gallery\\Http\\ImageResponse -->
<g id="node31" class="node"><title>\\OCA\\Gallery\\Http\\ImageResponse</title>
<polygon fill="none" stroke="black" points="1043,-936 939,-936 939,-900 1043,-900 1043,-936"/>
<text text-anchor="middle" x="991" y="-915.1" font-family="Courier,monospace" font-size="11.00">ImageResponse</text>
</g>
<!-- \\OCP\\AppFramework\\Http\\Response -->
<g id="node74" class="node"><title>\\OCP\\AppFramework\\Http\\Response</title>
<ellipse fill="none" stroke="black" cx="605" cy="-72" rx="186.176" ry="18.3848"/>
<text text-anchor="middle" x="605" y="-68.4" font-family="Times Roman,serif" font-size="14.00" fill="gray">\OCP\AppFramework\Http\Response</text>
</g>
<!-- \\OCA\\Gallery\\Http\\ImageResponse&#45;&gt;\\OCP\\AppFramework\\Http\\Response -->
<g id="edge42" class="edge"><title>\\OCA\\Gallery\\Http\\ImageResponse&#45;&gt;\\OCP\\AppFramework\\Http\\Response</title>
<path fill="none" stroke="black" d="M938.894,-919.19C912.544,-916.853 882.342,-909.129 864,-888 748.582,-755.047 913.191,-226.713 792,-99 787.407,-94.1594 782.362,-89.9176 776.968,-86.2101"/>
<polygon fill="none" stroke="black" points="778.566,-83.0837 768.217,-80.8144 774.892,-89.0421 778.566,-83.0837"/>
</g>
<!-- \\OCA\\Gallery\\Middleware\\CheckException -->
<g id="node33" class="node"><title>\\OCA\\Gallery\\Middleware\\CheckException</title>
<polygon fill="none" stroke="black" points="1046,-2102 936,-2102 936,-2066 1046,-2066 1046,-2102"/>
<text text-anchor="middle" x="991" y="-2081.1" font-family="Courier,monospace" font-size="11.00">CheckException</text>
</g>
<!-- \\OCA\\Gallery\\Middleware\\CheckException&#45;&gt;\\Exception -->
<g id="edge44" class="edge"><title>\\OCA\\Gallery\\Middleware\\CheckException&#45;&gt;\\Exception</title>
<path fill="none" stroke="black" d="M935.242,-2085.25C909.58,-2082.66 881.099,-2074.7 864,-2054 743.022,-1907.56 910.635,-494.342 792,-346 684.463,-211.535 557.802,-345.5 418,-245 371.158,-211.327 394.605,-168.073 346,-137 316.522,-118.155 278.582,-110.798 245.747,-108.407"/>
<polygon fill="none" stroke="black" points="245.924,-104.912 235.736,-107.818 245.513,-111.9 245.924,-104.912"/>
</g>
<!-- \\OCA\\Gallery\\Middleware\\CheckMiddleware -->
<g id="node34" class="node"><title>\\OCA\\Gallery\\Middleware\\CheckMiddleware</title>
<polygon fill="none" stroke="black" points="664,-2156 546,-2156 546,-2120 664,-2120 664,-2156"/>
<text text-anchor="start" x="571" y="-2143.43" font-family="Courier,monospace" font-size="11.00">«abstract»</text>
<text text-anchor="start" x="554" y="-2130.23" font-family="Courier,monospace" font-size="11.00">CheckMiddleware</text>
</g>
<!-- \\OCP\\AppFramework\\Middleware -->
<g id="node77" class="node"><title>\\OCP\\AppFramework\\Middleware</title>
<ellipse fill="none" stroke="black" cx="173" cy="-218" rx="172.034" ry="18.3848"/>
<text text-anchor="middle" x="173" y="-214.4" font-family="Times Roman,serif" font-size="14.00" fill="gray">\OCP\AppFramework\Middleware</text>
</g>
<!-- \\OCA\\Gallery\\Middleware\\CheckMiddleware&#45;&gt;\\OCP\\AppFramework\\Middleware -->
<g id="edge46" class="edge"><title>\\OCA\\Gallery\\Middleware\\CheckMiddleware&#45;&gt;\\OCP\\AppFramework\\Middleware</title>
<path fill="none" stroke="black" d="M545.444,-2128.2C502.317,-2117.71 446.742,-2096.43 418,-2054 311.475,-1896.74 435.052,-513.777 346,-346 319.619,-296.297 264.4,-260.773 223.406,-239.948"/>
<polygon fill="none" stroke="black" points="224.883,-236.774 214.368,-235.475 221.778,-243.047 224.883,-236.774"/>
</g>
<!-- \\OCA\\Gallery\\Middleware\\EnvCheckMiddleware -->
<g id="node35" class="node"><title>\\OCA\\Gallery\\Middleware\\EnvCheckMiddleware</title>
<polygon fill="none" stroke="black" points="1060,-2210 922,-2210 922,-2174 1060,-2174 1060,-2210"/>
<text text-anchor="middle" x="991" y="-2189.1" font-family="Courier,monospace" font-size="11.00">EnvCheckMiddleware</text>
</g>
<!-- \\OCA\\Gallery\\Middleware\\EnvCheckMiddleware&#45;&gt;\\OCA\\Gallery\\Middleware\\CheckMiddleware -->
<g id="edge48" class="edge"><title>\\OCA\\Gallery\\Middleware\\EnvCheckMiddleware&#45;&gt;\\OCA\\Gallery\\Middleware\\CheckMiddleware</title>
<path fill="none" stroke="black" d="M921.991,-2182.35C852.131,-2172.57 744.686,-2157.54 674.611,-2147.74"/>
<polygon fill="none" stroke="black" points="674.941,-2144.25 664.552,-2146.33 673.971,-2151.18 674.941,-2144.25"/>
</g>
<!-- \\OCA\\Gallery\\Middleware\\SharingCheckMiddleware -->
<g id="node36" class="node"><title>\\OCA\\Gallery\\Middleware\\SharingCheckMiddleware</title>
<polygon fill="none" stroke="black" points="1073,-2156 909,-2156 909,-2120 1073,-2120 1073,-2156"/>
<text text-anchor="middle" x="991" y="-2135.1" font-family="Courier,monospace" font-size="11.00">SharingCheckMiddleware</text>
</g>
<!-- \\OCA\\Gallery\\Middleware\\SharingCheckMiddleware&#45;&gt;\\OCA\\Gallery\\Middleware\\CheckMiddleware -->
<g id="edge50" class="edge"><title>\\OCA\\Gallery\\Middleware\\SharingCheckMiddleware&#45;&gt;\\OCA\\Gallery\\Middleware\\CheckMiddleware</title>
<path fill="none" stroke="black" d="M908.193,-2138C838.698,-2138 740.537,-2138 674.929,-2138"/>
<polygon fill="none" stroke="black" points="674.688,-2134.5 664.688,-2138 674.688,-2141.5 674.688,-2134.5"/>
</g>
<!-- \\OCA\\Gallery\\Preview\\Preview -->
<g id="node38" class="node"><title>\\OCA\\Gallery\\Preview\\Preview</title>
<polygon fill="none" stroke="black" points="1023,-854 959,-854 959,-818 1023,-818 1023,-854"/>
<text text-anchor="middle" x="991" y="-833.1" font-family="Courier,monospace" font-size="11.00">Preview</text>
</g>
<!-- \\OCA\\Gallery\\Service\\ConfigService -->
<g id="node40" class="node"><title>\\OCA\\Gallery\\Service\\ConfigService</title>
<polygon fill="none" stroke="black" points="1043,-718 939,-718 939,-682 1043,-682 1043,-718"/>
<text text-anchor="middle" x="991" y="-697.1" font-family="Courier,monospace" font-size="11.00">ConfigService</text>
</g>
<!-- \\OCA\\Gallery\\Service\\FilesService -->
<g id="node42" class="node"><title>\\OCA\\Gallery\\Service\\FilesService</title>
<polygon fill="none" stroke="black" points="654,-664 556,-664 556,-628 654,-628 654,-664"/>
<text text-anchor="start" x="571" y="-651.433" font-family="Courier,monospace" font-size="11.00">«abstract»</text>
<text text-anchor="start" x="564" y="-638.233" font-family="Courier,monospace" font-size="11.00">FilesService</text>
</g>
<!-- \\OCA\\Gallery\\Service\\ConfigService&#45;&gt;\\OCA\\Gallery\\Service\\FilesService -->
<g id="edge52" class="edge"><title>\\OCA\\Gallery\\Service\\ConfigService&#45;&gt;\\OCA\\Gallery\\Service\\FilesService</title>
<path fill="none" stroke="black" d="M938.942,-692.717C867.697,-682.75 740.109,-664.901 664.953,-654.387"/>
<polygon fill="none" stroke="black" points="665.096,-650.873 654.708,-652.954 664.127,-657.806 665.096,-650.873"/>
</g>
<!-- \\OCA\\Gallery\\Service\\DownloadService -->
<g id="node41" class="node"><title>\\OCA\\Gallery\\Service\\DownloadService</title>
<polygon fill="none" stroke="black" points="664,-772 546,-772 546,-736 664,-736 664,-772"/>
<text text-anchor="middle" x="605" y="-751.1" font-family="Courier,monospace" font-size="11.00">DownloadService</text>
</g>
<!-- \\OCA\\Gallery\\Service\\Service -->
<g id="node49" class="node"><title>\\OCA\\Gallery\\Service\\Service</title>
<polygon fill="none" stroke="black" points="215,-718 131,-718 131,-682 215,-682 215,-718"/>
<text text-anchor="start" x="139" y="-705.433" font-family="Courier,monospace" font-size="11.00">«abstract»</text>
<text text-anchor="start" x="149" y="-692.233" font-family="Courier,monospace" font-size="11.00">Service</text>
</g>
<!-- \\OCA\\Gallery\\Service\\DownloadService&#45;&gt;\\OCA\\Gallery\\Service\\Service -->
<g id="edge54" class="edge"><title>\\OCA\\Gallery\\Service\\DownloadService&#45;&gt;\\OCA\\Gallery\\Service\\Service</title>
<path fill="none" stroke="black" d="M545.838,-746.605C461.075,-736.009 306.398,-716.675 225.491,-706.561"/>
<polygon fill="none" stroke="black" points="225.883,-703.083 215.526,-705.316 225.015,-710.029 225.883,-703.083"/>
</g>
<!-- \\OCA\\Gallery\\Service\\FilesService&#45;&gt;\\OCA\\Gallery\\Service\\Service -->
<g id="edge56" class="edge"><title>\\OCA\\Gallery\\Service\\FilesService&#45;&gt;\\OCA\\Gallery\\Service\\Service</title>
<path fill="none" stroke="black" d="M555.444,-652.194C473.322,-662.46 309.753,-682.906 225.641,-693.42"/>
<polygon fill="none" stroke="black" points="225.031,-689.969 215.542,-694.682 225.899,-696.915 225.031,-689.969"/>
</g>
<!-- \\OCA\\Gallery\\Service\\ForbiddenServiceException -->
<g id="node43" class="node"><title>\\OCA\\Gallery\\Service\\ForbiddenServiceException</title>
<polygon fill="none" stroke="black" points="1083,-556 899,-556 899,-520 1083,-520 1083,-556"/>
<text text-anchor="middle" x="991" y="-535.1" font-family="Courier,monospace" font-size="11.00">ForbiddenServiceException</text>
</g>
<!-- \\OCA\\Gallery\\Service\\ServiceException -->
<g id="node50" class="node"><title>\\OCA\\Gallery\\Service\\ServiceException</title>
<polygon fill="none" stroke="black" points="667,-529 543,-529 543,-493 667,-493 667,-529"/>
<text text-anchor="middle" x="605" y="-508.1" font-family="Courier,monospace" font-size="11.00">ServiceException</text>
</g>
<!-- \\OCA\\Gallery\\Service\\ForbiddenServiceException&#45;&gt;\\OCA\\Gallery\\Service\\ServiceException -->
<g id="edge58" class="edge"><title>\\OCA\\Gallery\\Service\\ForbiddenServiceException&#45;&gt;\\OCA\\Gallery\\Service\\ServiceException</title>
<path fill="none" stroke="black" d="M898.052,-531.498C830.431,-526.768 740.16,-520.454 677.761,-516.09"/>
<polygon fill="none" stroke="black" points="677.828,-512.586 667.608,-515.379 677.339,-519.569 677.828,-512.586"/>
</g>
<!-- \\OCA\\Gallery\\Service\\InternalServerErrorServiceException -->
<g id="node44" class="node"><title>\\OCA\\Gallery\\Service\\InternalServerErrorServiceException</title>
<polygon fill="none" stroke="black" points="1117,-502 865,-502 865,-466 1117,-466 1117,-502"/>
<text text-anchor="middle" x="991" y="-481.1" font-family="Courier,monospace" font-size="11.00">InternalServerErrorServiceException</text>
</g>
<!-- \\OCA\\Gallery\\Service\\InternalServerErrorServiceException&#45;&gt;\\OCA\\Gallery\\Service\\ServiceException -->
<g id="edge60" class="edge"><title>\\OCA\\Gallery\\Service\\InternalServerErrorServiceException&#45;&gt;\\OCA\\Gallery\\Service\\ServiceException</title>
<path fill="none" stroke="black" d="M864.342,-492.86C802.522,-497.184 730.364,-502.231 677.879,-505.902"/>
<polygon fill="none" stroke="black" points="677.384,-502.428 667.653,-506.618 677.873,-509.411 677.384,-502.428"/>
</g>
<!-- \\OCA\\Gallery\\Service\\NotFoundServiceException -->
<g id="node45" class="node"><title>\\OCA\\Gallery\\Service\\NotFoundServiceException</title>
<polygon fill="none" stroke="black" points="1080,-610 902,-610 902,-574 1080,-574 1080,-610"/>
<text text-anchor="middle" x="991" y="-589.1" font-family="Courier,monospace" font-size="11.00">NotFoundServiceException</text>
</g>
<!-- \\OCA\\Gallery\\Service\\NotFoundServiceException&#45;&gt;\\OCA\\Gallery\\Service\\ServiceException -->
<g id="edge62" class="edge"><title>\\OCA\\Gallery\\Service\\NotFoundServiceException&#45;&gt;\\OCA\\Gallery\\Service\\ServiceException</title>
<path fill="none" stroke="black" d="M904.855,-573.923C836.625,-559.605 742.379,-539.828 677.866,-526.29"/>
<polygon fill="none" stroke="black" points="678.281,-522.801 667.775,-524.173 676.843,-529.652 678.281,-522.801"/>
</g>
<!-- \\OCA\\Gallery\\Service\\PreviewService -->
<g id="node46" class="node"><title>\\OCA\\Gallery\\Service\\PreviewService</title>
<polygon fill="none" stroke="black" points="660,-718 550,-718 550,-682 660,-682 660,-718"/>
<text text-anchor="middle" x="605" y="-697.1" font-family="Courier,monospace" font-size="11.00">PreviewService</text>
</g>
<!-- \\OCA\\Gallery\\Service\\PreviewService&#45;&gt;\\OCA\\Gallery\\Service\\Service -->
<g id="edge64" class="edge"><title>\\OCA\\Gallery\\Service\\PreviewService&#45;&gt;\\OCA\\Gallery\\Service\\Service</title>
<path fill="none" stroke="black" d="M549.408,-700C465.599,-700 307.98,-700 225.828,-700"/>
<polygon fill="none" stroke="black" points="225.713,-696.5 215.713,-700 225.713,-703.5 225.713,-696.5"/>
</g>
<!-- \\OCA\\Gallery\\Service\\SearchFolderService -->
<g id="node47" class="node"><title>\\OCA\\Gallery\\Service\\SearchFolderService</title>
<polygon fill="none" stroke="black" points="1063,-664 919,-664 919,-628 1063,-628 1063,-664"/>
<text text-anchor="middle" x="991" y="-643.1" font-family="Courier,monospace" font-size="11.00">SearchFolderService</text>
</g>
<!-- \\OCA\\Gallery\\Service\\SearchFolderService&#45;&gt;\\OCA\\Gallery\\Service\\FilesService -->
<g id="edge66" class="edge"><title>\\OCA\\Gallery\\Service\\SearchFolderService&#45;&gt;\\OCA\\Gallery\\Service\\FilesService</title>
<path fill="none" stroke="black" d="M918.396,-646C845.07,-646 733.138,-646 664.769,-646"/>
<polygon fill="none" stroke="black" points="664.596,-642.5 654.596,-646 664.596,-649.5 664.596,-642.5"/>
</g>
<!-- \\OCA\\Gallery\\Service\\SearchMediaService -->
<g id="node48" class="node"><title>\\OCA\\Gallery\\Service\\SearchMediaService</title>
<polygon fill="none" stroke="black" points="1060,-772 922,-772 922,-736 1060,-736 1060,-772"/>
<text text-anchor="middle" x="991" y="-751.1" font-family="Courier,monospace" font-size="11.00">SearchMediaService</text>
</g>
<!-- \\OCA\\Gallery\\Service\\SearchMediaService&#45;&gt;\\OCA\\Gallery\\Service\\FilesService -->
<g id="edge68" class="edge"><title>\\OCA\\Gallery\\Service\\SearchMediaService&#45;&gt;\\OCA\\Gallery\\Service\\FilesService</title>
<path fill="none" stroke="black" d="M921.707,-744.911C902.475,-740.895 881.957,-735.159 864,-727 827.583,-710.453 828.944,-688.335 792,-673 751.708,-656.275 702.81,-649.641 665.123,-647.126"/>
<polygon fill="none" stroke="black" points="664.994,-643.613 654.806,-646.522 664.584,-650.601 664.994,-643.613"/>
</g>
<!-- \\OCA\\Gallery\\Service\\ServiceException&#45;&gt;\\Exception -->
<g id="edge70" class="edge"><title>\\OCA\\Gallery\\Service\\ServiceException&#45;&gt;\\Exception</title>
<path fill="none" stroke="black" d="M542.279,-520.828C501.842,-523.438 450.858,-519.188 418,-489 300.41,-380.966 461.532,-247.232 346,-137 318.776,-111.025 277.433,-103.857 241.989,-103.381"/>
<polygon fill="none" stroke="black" points="241.67,-99.8819 231.684,-103.424 241.699,-106.882 241.67,-99.8819"/>
</g>
<!-- \\OCA\\Gallery\\Service\\ThumbnailService -->
<g id="node51" class="node"><title>\\OCA\\Gallery\\Service\\ThumbnailService</title>
<polygon fill="none" stroke="black" points="1053,-448 929,-448 929,-412 1053,-412 1053,-448"/>
<text text-anchor="middle" x="991" y="-427.1" font-family="Courier,monospace" font-size="11.00">ThumbnailService</text>
</g>
<!-- \\OCA\\Gallery\\Service\\Base64Encode -->
<g id="node52" class="node"><title>\\OCA\\Gallery\\Service\\Base64Encode</title>
<polygon fill="none" stroke="black" points="1040,-394 942,-394 942,-358 1040,-358 1040,-394"/>
<text text-anchor="middle" x="991" y="-373.1" font-family="Courier,monospace" font-size="11.00">Base64Encode</text>
</g>
<!-- \\OCA\\Gallery\\Utility\\EventSource -->
<g id="node54" class="node"><title>\\OCA\\Gallery\\Utility\\EventSource</title>
<polygon fill="none" stroke="black" points="1036,-312 946,-312 946,-276 1036,-276 1036,-312"/>
<text text-anchor="middle" x="991" y="-291.1" font-family="Courier,monospace" font-size="11.00">EventSource</text>
</g>
<!-- \\OCP\\IEventSource -->
<g id="node91" class="node"><title>\\OCP\\IEventSource</title>
<ellipse fill="none" stroke="black" cx="605" cy="-18" rx="104.151" ry="18.3848"/>
<text text-anchor="middle" x="605" y="-14.4" font-family="Times Roman,serif" font-size="14.00" fill="gray">\OCP\IEventSource</text>
</g>
<!-- \\OCA\\Gallery\\Utility\\EventSource&#45;&gt;\\OCP\\IEventSource -->
<g id="edge72" class="edge"><title>\\OCA\\Gallery\\Utility\\EventSource&#45;&gt;\\OCP\\IEventSource</title>
<path fill="none" stroke="black" stroke-dasharray="1,5" d="M982.513,-275.697C959.502,-228.358 890.931,-101.64 792,-45 770.136,-32.4826 744.56,-25.0457 719.466,-20.7677"/>
<polygon fill="none" stroke="black" points="719.926,-17.2973 709.508,-19.2265 718.855,-24.2149 719.926,-17.2973"/>
</g>
</g>
</svg>
